<?xml version="1.0" standalone="no"?>
<!DOCTYPE svg PUBLIC "-//W3C//DTD SVG 20010904//EN"
 "http://www.w3.org/TR/2001/REC-SVG-20010904/DTD/svg10.dtd">
<svg version="1.0" xmlns="http://www.w3.org/2000/svg"
 width="1032.000000pt" height="1032.000000pt" viewBox="0 0 1032.000000 1032.000000"
 preserveAspectRatio="xMidYMid meet">
<metadata>
Created by potrace 1.14, written by Peter Selinger 2001-2017
</metadata>
<g transform="translate(0.000000,1032.000000) scale(0.100000,-0.100000)"
fill="#000000" stroke="none">
<path d="M5059 10316 c-2 -2 -23 -6 -46 -9 -147 -21 -359 -118 -440 -204 -12
-13 -26 -23 -30 -24 -4 0 -30 -27 -58 -60 -27 -33 -55 -65 -60 -72 -32 -36
-106 -174 -107 -197 0 -3 -3 -9 -8 -15 -14 -18 -43 -132 -55 -215 -8 -55 -4
-270 5 -270 3 0 7 -14 8 -31 1 -17 7 -40 13 -50 5 -11 7 -19 4 -19 -6 0 23
-75 57 -146 46 -99 170 -251 259 -319 112 -85 242 -145 369 -171 14 -2 32 -7
40 -10 8 -4 65 -8 127 -9 113 -3 238 16 328 48 47 17 158 68 165 77 3 3 24 17
46 32 65 42 145 116 194 178 19 25 37 47 41 50 15 12 98 177 92 183 -3 4 -2 7
4 7 6 0 13 10 16 23 2 12 12 49 21 82 36 129 39 353 7 438 -5 12 -9 27 -10 32
-7 55 -94 243 -131 283 -11 12 -20 24 -20 27 0 18 -130 147 -190 188 -25 17
-47 35 -48 39 -2 4 -7 6 -12 3 -4 -3 -13 2 -20 10 -7 8 -19 15 -26 15 -8 0
-14 5 -14 11 0 6 -7 9 -15 5 -8 -3 -15 -1 -15 4 0 4 -24 16 -52 25 -29 9 -62
20 -73 25 -42 19 -135 32 -246 36 -63 3 -117 3 -120 0z"/>
<path d="M3145 9261 c-3 -2 -25 -5 -51 -7 -59 -4 -145 -23 -161 -37 -7 -5 -13
-7 -13 -4 0 6 -69 -21 -130 -51 -198 -97 -370 -295 -449 -514 -11 -32 -19 -58
-17 -58 2 0 -3 -21 -11 -47 -18 -57 -25 -259 -12 -329 5 -27 11 -56 12 -64 1
-8 6 -21 10 -27 5 -7 6 -13 3 -13 -14 0 91 -244 113 -260 3 -3 19 -25 36 -48
146 -217 457 -371 735 -366 112 2 210 17 270 41 8 3 21 7 28 9 33 7 171 79
226 118 59 42 196 172 196 186 0 4 11 20 25 36 14 16 25 32 25 37 0 4 11 24
23 45 26 41 74 156 81 193 3 13 5 24 6 24 3 0 11 40 14 71 1 16 5 34 8 40 2 5
4 42 4 82 -1 39 3 72 7 72 5 0 5 6 0 13 -4 6 -9 26 -10 42 -4 40 -8 63 -18
105 -5 19 -9 37 -10 40 -18 75 -88 230 -107 238 -5 2 -8 8 -8 14 0 43 -255
288 -300 288 -4 0 -10 4 -12 8 -7 17 -145 76 -207 88 -13 3 -31 8 -40 13 -9 4
-34 9 -55 10 -22 2 -49 6 -61 11 -12 4 -29 4 -38 -1 -9 -6 -17 -6 -17 -2 0 8
-88 12 -95 4z"/>
<path d="M7054 9261 c-2 -2 -25 -5 -51 -7 -61 -3 -211 -47 -282 -82 -131 -65
-256 -166 -328 -266 -21 -28 -40 -53 -43 -56 -28 -25 -112 -226 -125 -300 -3
-18 -8 -37 -10 -41 -3 -3 -7 -41 -10 -83 -2 -42 -7 -81 -10 -86 -4 -6 -3 -10
2 -10 4 0 9 -19 9 -43 2 -40 10 -116 14 -127 1 -3 2 -8 1 -13 -1 -4 6 -24 14
-45 9 -20 16 -38 16 -39 -1 -2 -1 -4 0 -5 0 -2 2 -10 4 -19 13 -67 127 -248
208 -330 79 -81 265 -208 281 -192 3 3 6 0 6 -7 0 -7 3 -10 7 -7 3 4 11 3 17
-2 12 -9 117 -42 151 -47 11 -1 38 -6 60 -10 57 -10 214 -11 251 -2 17 4 44 9
60 11 16 2 36 6 44 10 17 6 122 41 130 42 29 5 186 103 239 150 120 105 221
253 266 390 9 28 19 57 22 65 3 8 7 22 8 30 1 8 6 38 11 65 10 61 11 213 2
276 -18 130 -72 266 -150 382 -46 69 -189 214 -234 237 -16 8 -31 18 -34 22
-22 29 -289 132 -328 127 -4 -1 -9 0 -12 1 -14 7 -200 16 -206 11z"/>
<path d="M1177 8194 c-1 -1 -24 -5 -52 -7 -27 -3 -50 -6 -50 -7 0 -2 -15 -5
-57 -13 -14 -3 -35 -10 -45 -15 -10 -6 -22 -10 -26 -10 -18 0 -117 -45 -117
-53 0 -5 -4 -8 -8 -6 -16 4 -139 -83 -198 -140 -138 -134 -238 -317 -271 -494
-14 -80 -8 -308 11 -374 9 -33 19 -67 21 -75 2 -8 4 -16 5 -17 2 -2 3 -6 4
-10 1 -5 10 -25 19 -47 9 -21 17 -42 17 -46 0 -5 3 -10 8 -12 4 -1 18 -24 31
-50 69 -131 223 -275 382 -355 40 -20 186 -74 197 -73 1 0 3 0 5 -1 8 -3 72
-9 137 -14 41 -3 85 -7 98 -9 12 -2 22 0 22 3 0 4 17 7 38 8 51 1 115 13 128
24 6 5 14 6 17 3 13 -13 248 95 283 131 9 8 19 15 24 15 29 0 271 280 243 280
-4 0 -3 4 3 8 26 17 97 211 110 297 9 63 13 237 6 249 -3 6 -7 24 -8 40 -3 40
-11 83 -18 94 -3 5 -7 21 -10 38 -8 44 -89 204 -131 260 -32 43 -119 136 -165
178 -17 16 -156 106 -163 106 -2 0 -26 10 -53 22 -27 12 -53 23 -59 24 -5 2
-35 10 -65 19 -30 8 -75 18 -100 21 -46 6 -208 12 -213 8z"/>
<path d="M5078 8195 c-2 -2 -27 -6 -57 -10 -30 -4 -65 -11 -78 -16 -13 -5 -23
-6 -23 -4 0 6 -88 -28 -159 -62 -177 -83 -354 -265 -430 -443 -67 -157 -71
-176 -76 -360 -5 -162 17 -268 83 -410 24 -52 93 -162 117 -186 6 -7 22 -25
36 -40 13 -16 49 -49 79 -74 30 -25 57 -48 58 -52 2 -5 10 -8 18 -8 8 0 14 -3
14 -8 0 -14 190 -105 249 -118 175 -40 305 -43 466 -10 132 28 306 122 410
223 69 66 124 131 117 138 -3 3 -1 5 5 5 12 0 110 187 117 222 4 22 9 39 22
76 8 19 8 24 20 102 9 63 9 211 -1 255 -3 17 -8 46 -11 65 -3 19 -9 44 -14 55
-4 11 -20 53 -35 92 -14 40 -37 89 -51 108 -13 20 -24 38 -24 41 0 7 -50 74
-70 95 -8 8 -31 33 -51 55 -19 22 -51 51 -70 64 -19 14 -42 32 -52 41 -26 24
-183 103 -237 119 -69 21 -101 29 -145 36 -35 6 -223 13 -227 9z"/>
<path d="M8988 8195 c-2 -2 -24 -5 -49 -8 -214 -25 -437 -151 -579 -326 -19
-24 -41 -50 -48 -57 -7 -8 -10 -14 -6 -14 4 0 0 -8 -9 -18 -13 -14 -59 -107
-98 -197 -45 -105 -57 -355 -23 -495 4 -19 8 -37 9 -40 10 -52 77 -198 119
-260 64 -95 162 -194 245 -248 31 -20 59 -41 62 -45 3 -5 8 -8 10 -6 2 1 22
-7 44 -18 52 -27 179 -71 230 -79 57 -10 271 -10 330 -1 67 10 168 43 235 77
108 54 120 62 120 72 0 6 3 9 6 5 6 -5 36 17 81 61 13 12 27 22 31 22 9 1 126
148 142 180 7 14 16 27 19 30 12 10 80 170 88 205 24 117 32 193 29 284 -3 58
-7 117 -11 131 -3 14 -8 37 -11 51 -3 15 -14 51 -25 80 -11 30 -21 59 -22 64
-10 46 -124 213 -196 286 -43 42 -171 142 -171 133 0 -4 -8 0 -17 8 -26 23
-169 84 -218 94 -11 2 -31 6 -45 9 -14 3 -36 8 -50 11 -26 5 -217 13 -222 9z"/>
<path d="M3010 7115 c-110 -26 -114 -27 -200 -68 -152 -71 -294 -199 -382
-344 -29 -48 -52 -90 -51 -95 2 -4 -2 -8 -9 -8 -6 0 -9 -3 -5 -6 3 -3 -3 -26
-14 -51 -18 -42 -24 -65 -44 -158 -4 -16 -8 -81 -10 -142 -6 -252 85 -483 262
-660 68 -69 212 -173 239 -173 8 0 14 -5 14 -12 0 -6 3 -8 7 -5 3 4 11 3 17
-2 12 -9 128 -50 161 -57 76 -15 113 -18 210 -18 111 0 174 7 231 25 17 5 40
11 50 13 10 3 36 12 56 20 21 9 40 15 42 14 2 -2 13 5 23 15 11 9 23 14 26 10
4 -3 7 -1 7 5 0 7 6 12 14 12 8 0 21 6 28 13 7 7 26 20 41 30 84 54 203 178
247 255 8 15 18 29 21 32 10 8 75 152 84 185 5 17 9 32 10 35 12 44 27 135 30
183 2 34 4 64 5 67 1 3 1 10 0 15 -1 6 -4 29 -5 51 -19 255 -146 489 -354 653
-30 23 -73 52 -95 63 -23 11 -44 26 -48 32 -4 6 -8 8 -8 3 0 -4 -11 0 -25 9
-14 9 -25 13 -25 9 0 -4 -6 -3 -12 2 -13 11 -95 39 -139 49 -118 26 -284 26
-399 -1z"/>
<path d="M7029 7136 c-2 -2 -27 -6 -55 -9 -60 -6 -210 -55 -275 -89 -168 -89
-302 -221 -386 -378 -33 -61 -69 -150 -79 -192 -1 -5 -3 -10 -4 -13 -7 -13
-22 -113 -25 -160 -2 -22 -4 -44 -5 -50 -1 -5 -2 -12 -1 -15 1 -3 4 -39 7 -80
3 -41 6 -81 6 -87 1 -7 5 -13 9 -13 5 0 6 -6 3 -13 -12 -31 86 -269 134 -325
9 -11 26 -33 37 -49 49 -70 213 -213 244 -213 6 0 11 -4 11 -10 0 -5 7 -10 15
-10 8 0 15 -4 15 -8 0 -10 147 -66 230 -88 121 -32 333 -25 458 14 17 6 32 9
32 7 0 -11 182 82 234 119 74 53 162 137 202 191 16 22 32 42 35 45 3 3 13 19
22 35 101 185 136 321 131 502 -3 118 -8 151 -37 245 -8 26 -12 49 -9 52 3 4
0 6 -6 6 -7 0 -12 6 -12 14 0 17 -61 134 -93 179 -42 59 -53 71 -115 133 -62
62 -188 154 -211 154 -6 0 -11 4 -11 8 0 5 -15 13 -32 19 -18 6 -58 20 -89 32
-31 11 -71 23 -89 26 -18 3 -37 8 -42 11 -10 6 -243 15 -249 10z"/>
<path d="M1155 6070 c-2 -3 -20 -7 -39 -8 -50 -4 -199 -48 -249 -74 -23 -12
-44 -22 -47 -23 -9 -1 -65 -38 -87 -59 -13 -11 -23 -16 -23 -13 0 4 -8 -1 -19
-10 -107 -100 -137 -133 -176 -188 -41 -58 -113 -189 -119 -218 -2 -7 -6 -19
-9 -27 -44 -109 -57 -375 -23 -499 23 -84 75 -214 89 -223 7 -4 8 -8 4 -8 -25
0 177 -250 202 -250 5 0 11 -4 13 -8 14 -34 250 -166 313 -175 11 -1 25 -5 30
-8 6 -4 26 -9 45 -13 19 -3 46 -8 60 -11 35 -7 206 -8 257 -1 227 29 457 163
601 350 47 61 123 200 137 251 5 17 9 33 10 38 2 4 4 9 5 12 1 3 3 8 5 13 1 4
5 18 9 32 4 14 9 43 11 65 2 22 5 40 6 40 4 0 6 201 1 209 -3 5 -7 25 -9 45
-10 104 -67 247 -146 366 -34 52 -186 215 -200 215 -3 0 -29 16 -58 36 -58 39
-166 91 -204 98 -13 2 -32 9 -42 14 -17 9 -67 19 -143 29 -54 7 -201 9 -205 3z"/>
<path d="M5087 6074 c-1 -1 -20 -5 -42 -8 -132 -21 -149 -26 -275 -82 -36 -16
-67 -31 -70 -34 -15 -15 -71 -50 -80 -50 -5 0 -10 -4 -10 -10 0 -5 -7 -10 -16
-10 -8 0 -12 -4 -9 -10 3 -5 2 -10 -4 -10 -18 0 -130 -121 -176 -189 -50 -76
-105 -187 -105 -213 0 -10 -4 -18 -9 -18 -5 0 -8 -8 -6 -17 1 -10 -1 -25 -6
-34 -30 -58 -39 -309 -15 -400 4 -14 8 -32 10 -40 13 -66 21 -87 66 -184 68
-143 183 -279 297 -352 15 -9 30 -20 33 -23 18 -21 204 -103 220 -98 3 1 15
-4 27 -10 50 -27 263 -43 368 -27 59 9 70 11 113 24 18 5 36 11 40 12 15 4 38
11 64 21 15 6 30 9 34 8 4 -1 10 2 13 7 3 5 37 26 75 47 81 45 99 59 187 147
122 121 205 274 244 451 9 42 14 81 11 87 -4 5 -3 12 2 15 13 8 2 249 -12 263
-3 3 -6 19 -6 35 0 15 -4 36 -9 46 -5 9 -19 44 -31 77 -76 200 -263 402 -453
489 -129 58 -240 84 -385 89 -46 2 -84 2 -85 1z"/>
<path d="M8997 6073 c-1 -1 -20 -4 -42 -6 -151 -19 -337 -94 -432 -174 -12
-10 -37 -29 -54 -43 -18 -14 -42 -36 -54 -49 -11 -13 -27 -31 -36 -40 -29 -29
-96 -126 -103 -149 -4 -12 -12 -22 -17 -22 -5 0 -9 -5 -9 -11 0 -11 -22 -66
-40 -101 -10 -19 -36 -117 -46 -173 -9 -48 -9 -235 0 -285 12 -71 18 -96 42
-164 45 -127 143 -282 218 -345 10 -9 26 -23 35 -32 37 -36 110 -88 161 -116
55 -30 156 -73 181 -77 8 -1 19 -4 24 -7 22 -14 150 -31 225 -32 60 0 161 9
200 18 14 3 35 8 48 11 69 14 248 98 304 143 52 41 108 92 138 124 47 52 140
189 134 199 -3 4 -2 8 3 8 4 0 13 12 20 28 15 37 53 141 53 147 0 3 0 6 1 8
15 50 30 175 28 244 -2 82 -21 207 -36 243 -3 8 -7 18 -8 23 -2 4 -4 9 -5 12
-1 3 -4 10 -5 15 -1 6 -4 12 -5 15 -3 6 -5 12 -15 43 -4 12 -12 22 -17 22 -5
0 -7 4 -4 9 6 9 -80 145 -122 192 -51 58 -67 74 -117 115 -53 43 -142 104
-152 104 -3 0 -30 12 -59 26 -29 14 -58 26 -66 28 -7 1 -19 5 -25 9 -7 5 -13
5 -13 1 0 -3 -7 -1 -15 6 -9 7 -18 10 -21 7 -3 -3 -17 -2 -30 3 -34 13 -106
22 -192 24 -40 0 -74 0 -75 -1z"/>
<path d="M3148 5015 c-2 -2 -28 -5 -58 -8 -30 -3 -88 -14 -129 -26 -208 -58
-399 -194 -508 -363 -15 -23 -30 -45 -33 -48 -7 -7 -53 -99 -57 -113 -1 -7
-14 -44 -27 -83 -32 -94 -44 -180 -41 -289 4 -114 12 -181 27 -209 6 -11 11
-23 10 -26 -3 -10 20 -85 34 -112 8 -16 21 -43 31 -60 34 -69 90 -144 153
-209 100 -103 185 -161 315 -216 60 -24 73 -28 129 -39 16 -2 33 -7 37 -10 22
-13 234 -20 289 -9 13 2 42 7 64 11 82 12 289 98 308 127 4 7 8 8 8 4 0 -30
197 158 254 243 117 174 160 315 160 520 0 151 -11 209 -61 335 -56 141 -141
258 -276 380 -25 22 -106 75 -115 75 -6 0 -12 4 -14 9 -5 13 -176 78 -253 96
-59 13 -238 27 -247 20z"/>
<path d="M7000 5008 c-107 -15 -225 -51 -294 -89 -10 -6 -35 -20 -55 -31 -69
-38 -231 -173 -231 -192 0 -3 -8 -15 -17 -25 -36 -39 -81 -108 -105 -161 -28
-59 -57 -130 -58 -138 0 -4 -6 -25 -12 -47 -11 -43 -16 -73 -22 -150 -2 -27
-5 -54 -6 -60 -1 -5 -2 -12 0 -15 1 -3 3 -32 5 -65 7 -126 52 -281 105 -365 5
-8 17 -29 25 -46 25 -50 116 -154 186 -215 224 -194 523 -265 814 -194 73 18
215 76 215 87 0 4 5 8 11 8 49 0 276 209 311 286 6 13 14 24 19 24 4 0 14 17
23 38 9 20 20 44 25 52 9 14 23 47 25 60 1 3 4 10 7 15 4 6 10 24 14 40 5 17
9 32 10 35 2 7 14 59 21 90 12 50 11 244 -1 301 -7 33 -10 59 -8 59 3 0 0 7
-7 15 -7 8 -10 15 -7 15 6 0 -15 68 -33 105 -5 11 -16 36 -24 55 -24 55 -82
144 -131 199 -170 192 -407 306 -655 314 -52 2 -120 0 -150 -5z"/>
<path d="M1139 3946 c-2 -2 -22 -6 -44 -9 -102 -15 -247 -74 -355 -145 -60
-40 -169 -143 -218 -208 -78 -102 -150 -270 -171 -400 -9 -58 -8 -268 2 -311
22 -92 46 -159 79 -228 57 -116 68 -135 78 -135 5 0 11 -9 15 -20 9 -30 132
-149 205 -200 152 -107 320 -161 499 -163 133 -2 213 10 303 42 4 2 17 5 29 8
49 13 179 84 241 132 81 61 121 101 168 164 19 26 43 57 53 69 9 11 17 27 17
35 0 7 4 13 9 13 7 0 23 31 36 70 0 3 9 23 19 45 26 59 65 239 54 246 -7 4 -7
9 0 13 10 6 8 147 -2 221 -31 212 -175 450 -351 580 -22 17 -42 32 -45 35 -3
3 -41 24 -85 46 -85 44 -210 88 -225 79 -5 -3 -11 -1 -15 4 -6 11 -1 11 -166
16 -69 3 -128 3 -130 1z"/>
<path d="M5015 3940 c-74 -15 -90 -19 -139 -34 -57 -19 -219 -98 -236 -116 -3
-3 -18 -16 -35 -29 -47 -36 -117 -104 -150 -146 -17 -21 -36 -44 -42 -51 -7
-7 -13 -15 -13 -18 0 -3 -13 -28 -30 -55 -26 -45 -50 -98 -76 -166 -10 -28
-12 -36 -19 -70 -3 -16 -10 -45 -15 -62 -11 -43 -9 -274 3 -326 73 -312 256
-541 530 -665 37 -17 70 -31 72 -31 3 -1 6 -1 8 -2 120 -37 324 -55 422 -37
125 23 296 87 361 137 12 9 32 23 45 31 22 14 171 160 195 191 59 79 138 249
150 329 3 19 9 37 13 40 12 10 18 231 8 300 -30 203 -118 378 -259 518 -82 83
-84 83 -149 125 -97 62 -278 135 -299 122 -5 -3 -10 -1 -10 5 0 7 -6 10 -14 7
-8 -3 -17 -3 -21 1 -9 10 -253 11 -300 2z"/>
<path d="M8938 3945 c-2 -2 -17 -6 -33 -9 -58 -11 -71 -14 -135 -36 -77 -26
-220 -100 -227 -117 -3 -7 -11 -13 -19 -13 -18 0 -190 -173 -199 -199 -3 -12
-10 -21 -14 -21 -6 0 -26 -38 -101 -191 -15 -30 -51 -189 -45 -198 3 -5 2 -12
-3 -15 -15 -9 -4 -264 14 -316 3 -8 8 -26 10 -40 7 -36 64 -171 86 -202 10
-14 18 -31 18 -37 0 -6 4 -11 8 -11 5 0 13 -10 19 -23 24 -53 200 -227 229
-227 7 0 14 -7 18 -15 3 -8 10 -15 16 -15 6 0 28 -11 50 -25 22 -14 46 -25 55
-25 8 0 15 -4 15 -10 0 -5 9 -10 19 -10 11 0 23 -5 26 -11 4 -5 12 -8 18 -6 7
2 23 -1 37 -8 14 -7 45 -16 70 -20 25 -4 56 -10 70 -12 46 -9 194 -9 245 0 28
4 61 10 75 12 59 9 201 60 211 76 3 6 9 10 13 10 36 -6 276 185 276 219 0 6 7
10 15 10 8 0 15 5 15 11 0 6 11 25 25 43 14 18 25 38 25 44 0 7 4 12 8 12 9 0
44 65 48 89 1 8 6 17 11 20 4 3 9 12 11 20 1 7 14 52 29 100 21 71 26 108 27
211 1 149 -6 209 -39 307 -68 202 -157 320 -361 482 -9 7 -83 46 -164 86 -14
7 -38 16 -55 20 -16 5 -34 10 -40 11 -55 18 -121 26 -237 29 -75 2 -138 2
-140 0z"/>
<path d="M3169 2896 c-2 -2 -31 -6 -64 -10 -33 -3 -75 -10 -93 -15 -17 -5 -32
-8 -32 -6 0 2 -16 -3 -35 -11 -19 -8 -35 -11 -35 -8 0 4 -6 1 -13 -5 -8 -6
-17 -8 -20 -4 -4 3 -7 1 -7 -5 0 -7 -6 -12 -13 -12 -18 0 -111 -48 -172 -89
-72 -49 -194 -175 -246 -256 -43 -66 -96 -178 -105 -219 -2 -10 -8 -24 -14
-30 -5 -7 -8 -15 -5 -18 3 -2 -2 -37 -9 -78 -23 -117 -11 -304 25 -420 53
-168 161 -326 298 -440 87 -72 260 -161 336 -174 17 -2 30 -5 30 -6 0 -7 138
-23 205 -24 72 0 153 6 165 13 5 2 22 6 37 8 64 7 306 111 328 142 3 3 28 24
56 46 44 35 98 91 155 162 16 20 89 141 89 147 0 2 8 21 17 42 9 22 17 41 18
44 0 3 4 11 8 18 5 6 6 12 3 12 -3 0 -1 12 5 28 36 91 47 329 20 427 -5 22
-12 50 -14 62 -2 12 -6 26 -10 29 -4 4 -7 15 -7 24 0 24 -93 203 -131 253 -45
57 -146 158 -189 187 -19 13 -37 27 -40 30 -13 16 -123 70 -190 94 -97 35
-179 52 -265 55 -38 1 -72 4 -76 6 -3 3 -8 3 -10 1z"/>
<path d="M7125 2894 c-5 -1 -41 -5 -80 -7 -60 -4 -95 -9 -150 -21 -5 -2 -30
-9 -55 -16 -25 -7 -48 -13 -52 -12 -5 1 -8 -3 -8 -8 0 -5 -9 -10 -20 -10 -11
0 -20 -5 -20 -12 0 -6 -3 -9 -6 -5 -5 5 -102 -43 -129 -65 -77 -60 -137 -112
-165 -145 -53 -60 -80 -93 -80 -97 0 -2 -18 -34 -41 -71 -22 -37 -42 -75 -44
-84 -2 -9 -11 -34 -20 -55 -9 -22 -18 -47 -20 -55 -2 -9 -9 -38 -15 -66 -13
-54 -22 -305 -11 -305 4 0 6 -12 6 -27 -1 -16 2 -38 7 -51 4 -12 10 -33 12
-45 7 -36 47 -139 74 -187 14 -25 30 -54 36 -65 6 -11 13 -22 16 -25 3 -3 17
-21 31 -40 80 -107 213 -211 352 -275 75 -35 241 -80 257 -70 5 3 11 2 13 -2
9 -14 223 -5 292 12 216 52 408 171 524 325 14 19 28 37 31 40 24 21 111 195
102 204 -3 3 0 6 6 6 7 0 11 3 10 8 -1 4 5 32 14 62 42 143 45 333 7 480 -7
25 -15 50 -18 55 -3 6 -7 19 -8 29 -2 11 -8 25 -13 31 -5 7 -7 15 -3 18 3 4 2
7 -4 7 -6 0 -14 11 -17 25 -7 28 -66 123 -91 149 -9 9 -13 16 -9 16 9 0 -144
150 -176 172 -152 106 -291 160 -449 174 -31 3 -60 6 -66 8 -5 2 -14 2 -20 0z"/>
<path d="M5060 1823 c-106 -15 -188 -39 -290 -85 -34 -16 -141 -79 -164 -98
-54 -42 -158 -152 -193 -205 -81 -120 -142 -266 -146 -352 -1 -13 -4 -23 -7
-23 -7 0 -8 -21 -8 -145 0 -81 4 -160 8 -160 2 0 4 -12 13 -55 5 -23 11 -44
24 -80 4 -8 7 -19 8 -25 10 -42 111 -221 145 -255 8 -9 26 -29 40 -45 67 -81
213 -181 325 -224 33 -13 69 -27 80 -32 89 -35 347 -47 455 -20 130 31 216 68
320 137 85 57 144 114 239 230 46 57 130 251 146 339 3 17 8 46 12 65 11 61 5
233 -11 300 -28 123 -34 140 -74 223 -49 99 -118 192 -199 267 -78 73 -100 90
-107 83 -3 -4 -6 -1 -6 4 0 6 -19 21 -42 33 -24 11 -50 25 -58 30 -49 30 -174
72 -255 85 -46 8 -218 13 -255 8z"/>
</g>
</svg>
