<?xml version="1.0" encoding="utf-8"?>
<!-- Generator: Adobe Illustrator 25.2.3, SVG Export Plug-In . SVG Version: 6.00 Build 0)  -->
<svg version="1.1" id="Layer_1" xmlns="http://www.w3.org/2000/svg" xmlns:xlink="http://www.w3.org/1999/xlink" x="0px" y="0px"
	 viewBox="0 0 40 50" style="enable-background:new 0 0 40 50;" xml:space="preserve">
<style type="text/css">
	.st0{fill:#FFFFFF;}
	.st1{fill:#EE2E2A;}
	.st2{fill:#606062;}
</style>
<path class="st0" d="M12.4,18.7H7.1c-0.5,0-0.9-0.4-0.9-0.9v-5.4c0-0.5,0.4-0.9,0.9-0.9h5.3c0.5,0,0.9,0.4,0.9,0.9v5.4
	C13.3,18.3,12.9,18.7,12.4,18.7z"/>
<path class="st0" d="M12.4,30.4H7.1c-0.5,0-0.9-0.4-0.9-0.9v-5.4c0-0.5,0.4-0.9,0.9-0.9h5.3c0.5,0,0.9,0.4,0.9,0.9v5.4
	C13.3,30,12.9,30.4,12.4,30.4z"/>
<path class="st0" d="M12.4,42H7.1c-0.5,0-0.9-0.4-0.9-0.9v-5.4c0-0.5,0.4-0.9,0.9-0.9h5.3c0.5,0,0.9,0.4,0.9,0.9v5.4
	C13.3,41.6,12.9,42,12.4,42z"/>
<path class="st1" d="M38.1,8.4L30.7,1c-0.7-0.7-1.5-1-2.5-1H2.6C1.2,0,0,1.2,0,2.6v44.7C0,48.8,1.2,50,2.6,50h33.9
	c1.4,0,2.6-1.2,2.6-2.6V10.9C39.1,10,38.7,9.1,38.1,8.4z M36.5,48.3H2.6c-0.5,0-0.9-0.4-0.9-1V2.6c0-0.5,0.4-1,0.9-1h25.6
	c0.5,0,1,0.2,1.3,0.5l7.3,7.4C37,9.7,37,9.8,37.1,9.8h-6.9c-0.5,0-0.9-0.4-0.9-1V4.4c0-0.5-0.4-0.8-0.8-0.8c-0.5,0-0.8,0.4-0.8,0.8
	v4.5c0,1.4,1.2,2.6,2.6,2.6h7.2v35.9C37.4,47.9,37,48.3,36.5,48.3z"/>
<path class="st2" d="M16.9,25.8h11.6c0.5,0,0.8-0.4,0.8-0.8c0-0.5-0.4-0.8-0.8-0.8H16.9c-0.5,0-0.8,0.4-0.8,0.8
	C16,25.5,16.4,25.8,16.9,25.8z"/>
<path class="st2" d="M32.9,27.7h-16c-0.5,0-0.8,0.4-0.8,0.8c0,0.5,0.4,0.8,0.8,0.8h16c0.5,0,0.8-0.4,0.8-0.8
	C33.8,28.1,33.4,27.7,32.9,27.7z"/>
<path class="st2" d="M16.9,14.2h8c0.5,0,0.8-0.4,0.8-0.8c0-0.5-0.4-0.8-0.8-0.8h-8c-0.5,0-0.8,0.4-0.8,0.8
	C16,13.8,16.4,14.2,16.9,14.2z"/>
<path class="st2" d="M32.9,16.1h-16c-0.5,0-0.8,0.4-0.8,0.8c0,0.5,0.4,0.8,0.8,0.8h16c0.5,0,0.8-0.4,0.8-0.8
	C33.8,16.5,33.4,16.1,32.9,16.1z"/>
<path class="st2" d="M12.4,34H7.1c-1,0-1.7,0.8-1.7,1.7v5.4c0,1,0.8,1.7,1.7,1.7h5.3c1,0,1.7-0.8,1.7-1.7v-5.4
	C14.2,34.8,13.4,34,12.4,34z M12.5,41.1C12.5,41.1,12.5,41.2,12.5,41.1l-5.4,0.1c0,0-0.1,0-0.1-0.1v-5.4c0,0,0-0.1,0.1-0.1h5.3
	c0,0,0.1,0,0.1,0.1V41.1z"/>
<path class="st2" d="M16.9,37.5h8.9c0.5,0,0.8-0.4,0.8-0.8s-0.4-0.8-0.8-0.8h-8.9c-0.5,0-0.8,0.4-0.8,0.8S16.4,37.5,16.9,37.5z"/>
<path class="st2" d="M29.4,39.4H16.9c-0.5,0-0.8,0.4-0.8,0.8c0,0.5,0.4,0.8,0.8,0.8h12.5c0.5,0,0.8-0.4,0.8-0.8
	C30.2,39.7,29.8,39.4,29.4,39.4z"/>
<path class="st2" d="M13.6,11.9l-3,3l-1.2-1.2c-0.3-0.3-0.9-0.3-1.2,0c-0.3,0.3-0.3,0.9,0,1.2l1.8,1.8c0.2,0.2,0.4,0.2,0.6,0.2
	c0.2,0,0.4-0.1,0.6-0.2l1.2-1.3v2.4c0,0,0,0.1-0.1,0.1H7.1c0,0-0.1,0-0.1-0.1v-5.4c0,0,0-0.1,0.1-0.1h3.6c0.5,0,0.8-0.4,0.8-0.8
	c0-0.5-0.4-0.8-0.8-0.8H7.1c-1,0-1.7,0.8-1.7,1.7v5.4c0,1,0.8,1.7,1.7,1.7h5.3c1,0,1.7-0.8,1.7-1.7v-4.1l0.6-0.6
	c0.3-0.3,0.3-0.9,0-1.2C14.5,11.6,13.9,11.6,13.6,11.9z"/>
<path class="st2" d="M13.6,23.5l-3,3l-1.2-1.2c-0.3-0.3-0.9-0.3-1.2,0c-0.3,0.3-0.3,0.9,0,1.2l1.8,1.8c0.2,0.2,0.4,0.2,0.6,0.2
	c0.2,0,0.4-0.1,0.6-0.2l1.2-1.3v2.4c0,0,0,0.1-0.1,0.1H7.1c0,0-0.1,0-0.1-0.1v-5.4c0,0,0-0.1,0.1-0.1h3.6c0.5,0,0.8-0.4,0.8-0.8
	s-0.4-0.8-0.8-0.8H7.1c-1,0-1.7,0.8-1.7,1.7v5.4c0,1,0.8,1.7,1.7,1.7h5.3c1,0,1.7-0.8,1.7-1.7v-4.1l0.6-0.6c0.3-0.3,0.3-0.9,0-1.2
	C14.5,23.2,13.9,23.2,13.6,23.5z"/>
</svg>
