<?xml version="1.0" encoding="utf-8"?>
<!-- Generator: Adobe Illustrator 25.2.3, SVG Export Plug-In . SVG Version: 6.00 Build 0)  -->
<svg version="1.1" id="Layer_1" xmlns="http://www.w3.org/2000/svg" xmlns:xlink="http://www.w3.org/1999/xlink" x="0px" y="0px"
	 viewBox="0 0 50 50" style="enable-background:new 0 0 50 50;" xml:space="preserve">
<style type="text/css">
	.st0{fill:#606062;}
	.st1{fill:#EE2E2A;}
</style>
<path class="st0" d="M34.6,14.3c-0.5,0-1,0.4-1,1c0,0.5,0.4,1,1,1c0.5,0,1-0.4,1-1C35.6,14.7,35.2,14.3,34.6,14.3z"/>
<path class="st0" d="M15.2,33.8c-0.5,0-1,0.4-1,1c0,0.5,0.4,1,1,1c0.5,0,1-0.4,1-1C16.2,34.2,15.7,33.8,15.2,33.8z"/>
<path class="st1" d="M49.5,20.9c-0.1-0.5-0.5-0.8-1-0.8h-3.8c-0.5-2-1.3-4-2.4-5.7l2.8-2.8c0.3-0.3,0.4-0.9,0.1-1.3
	c-1.6-2.2-3.5-4.2-5.7-5.8c-0.4-0.3-0.9-0.2-1.3,0.1l-2.8,2.8c-1.8-1.1-3.7-1.9-5.7-2.4V1.3c0-0.5-0.3-0.9-0.8-1
	c-2.7-0.4-5.4-0.4-8.1,0c-0.5,0.1-0.8,0.5-0.8,1v3.8c-2,0.5-3.9,1.3-5.7,2.4l-2.8-2.8c-0.3-0.3-0.9-0.4-1.3-0.1
	C8,6.1,6.1,8,4.5,10.3c-0.3,0.4-0.2,0.9,0.1,1.3l2.8,2.8c-1.1,1.8-1.9,3.7-2.4,5.7H1.3c-0.5,0-0.9,0.3-1,0.8C0.1,22.3,0,23.6,0,25
	c0,1.4,0.1,2.7,0.3,4.1c0.1,0.5,0.5,0.8,1,0.8h3.8c0.5,2,1.3,4,2.4,5.7l-2.8,2.8c-0.3,0.3-0.4,0.9-0.1,1.3c1.6,2.2,3.5,4.2,5.7,5.8
	c0.4,0.3,0.9,0.2,1.3-0.1l2.8-2.8c1.8,1.1,3.7,1.9,5.7,2.4v3.8c0,0.5,0.3,0.9,0.8,1c1.3,0.2,2.7,0.3,4.1,0.3c1.4,0,2.7-0.1,4.1-0.3
	c0.5-0.1,0.8-0.5,0.8-1v-3.8c2-0.5,3.9-1.3,5.7-2.4l2.8,2.8c0.3,0.3,0.9,0.4,1.3,0.1c2.2-1.6,4.1-3.5,5.7-5.8
	c0.3-0.4,0.2-0.9-0.1-1.3l-2.8-2.8c1.1-1.8,1.9-3.7,2.4-5.7h3.8c0.5,0,0.9-0.3,1-0.8c0.2-1.3,0.3-2.7,0.3-4.1
	C49.8,23.6,49.7,22.3,49.5,20.9z M47.7,27.9H44c-0.5,0-0.9,0.3-1,0.8c-0.5,2.3-1.4,4.5-2.7,6.5c-0.3,0.4-0.2,0.9,0.1,1.2l2.8,2.8
	c-1.2,1.6-2.6,2.9-4.1,4.1l-2.8-2.8c-0.3-0.3-0.8-0.4-1.2-0.1c-2,1.3-4.2,2.2-6.5,2.7c-0.5,0.1-0.8,0.5-0.8,1v3.7
	c-1.9,0.3-3.9,0.3-5.8,0v-3.7c0-0.5-0.3-0.9-0.8-1c-2.3-0.5-4.5-1.4-6.5-2.7c-0.4-0.3-0.9-0.2-1.2,0.1l-2.8,2.8
	c-1.6-1.2-2.9-2.6-4.1-4.1l2.8-2.8c0.3-0.3,0.4-0.8,0.1-1.2c-1.3-2-2.2-4.2-2.7-6.5c-0.1-0.5-0.5-0.8-1-0.8H2.1C2,27,1.9,26,1.9,25
	c0-1,0.1-2,0.2-2.9h3.7c0.5,0,0.9-0.3,1-0.8c0.5-2.3,1.4-4.5,2.7-6.5c0.3-0.4,0.2-0.9-0.1-1.2l-2.8-2.8c1.2-1.6,2.6-2.9,4.1-4.1
	l2.8,2.8c0.3,0.3,0.8,0.4,1.2,0.1c2-1.3,4.2-2.2,6.5-2.7c0.5-0.1,0.8-0.5,0.8-1V2.1c1.9-0.3,3.9-0.3,5.8,0v3.7c0,0.5,0.3,0.9,0.8,1
	c2.3,0.5,4.5,1.4,6.5,2.7c0.4,0.3,0.9,0.2,1.2-0.1l2.8-2.8c1.6,1.2,2.9,2.6,4.1,4.1l-2.8,2.8c-0.3,0.3-0.4,0.8-0.1,1.2
	c1.3,2,2.2,4.2,2.7,6.5c0.1,0.5,0.5,0.8,1,0.8h3.7c0.1,1,0.2,1.9,0.2,2.9C47.9,26,47.8,27,47.7,27.9z"/>
<path class="st0" d="M31.9,12.1c-2.1-1.2-4.6-1.8-7-1.8c-8,0-14.6,6.6-14.6,14.6c0,2.5,0.6,4.9,1.8,7c0.3,0.5,0.9,0.6,1.3,0.4
	c0.5-0.3,0.6-0.9,0.4-1.3c-1-1.9-1.6-4-1.6-6.1c0-7,5.7-12.7,12.6-12.7c2.1,0,4.2,0.5,6.1,1.6c0.5,0.3,1.1,0.1,1.3-0.4
	C32.6,13,32.4,12.4,31.9,12.1z"/>
<path class="st0" d="M37.7,18c-0.3-0.5-0.8-0.6-1.3-0.4c-0.5,0.3-0.6,0.9-0.4,1.3c1,1.9,1.6,4,1.6,6.1c0,7-5.7,12.7-12.6,12.7
	c-2.1,0-4.2-0.5-6.1-1.6c-0.5-0.3-1.1-0.1-1.3,0.4c-0.3,0.5-0.1,1.1,0.4,1.3c2.1,1.2,4.6,1.8,7,1.8c8,0,14.6-6.6,14.6-14.6
	C39.5,22.5,38.9,20.1,37.7,18z"/>
<path class="st0" d="M24.9,14.3c-5.9,0-10.7,4.8-10.7,10.7c0,5.9,4.8,10.7,10.7,10.7c5.9,0,10.7-4.8,10.7-10.7
	C35.6,19.1,30.8,14.3,24.9,14.3z M24.9,33.8c-4.8,0-8.8-3.9-8.8-8.8c0-4.8,3.9-8.8,8.8-8.8c4.8,0,8.8,3.9,8.8,8.8
	C33.7,29.8,29.7,33.8,24.9,33.8z"/>
</svg>
