<?xml version="1.0" encoding="utf-8"?>
<!-- Generator: Adobe Illustrator 25.2.3, SVG Export Plug-In . SVG Version: 6.00 Build 0)  -->
<svg version="1.1" id="Layer_1" xmlns="http://www.w3.org/2000/svg" xmlns:xlink="http://www.w3.org/1999/xlink" x="0px" y="0px"
	 viewBox="0 0 118 118" style="enable-background:new 0 0 118 118;" xml:space="preserve">
<style type="text/css">
	.st0{fill:#606062;}
	.st1{fill:#EE2E2A;}
</style>
<path class="st0" d="M94.6,60.8c0,0,0-0.1,0-0.1L91,35.7c-0.1-0.4-0.3-0.8-0.7-1c-0.4-0.2-0.8-0.2-1.2-0.1l-16.5,6.6
	c-0.7,0.3-1.1,1.1-0.8,1.8c0.3,0.7,1.1,1.1,1.8,0.8l14.9-6l3.3,23c0,0.1,0,0.1,0,0.2c0.7,4.3-0.1,8.7-2.2,12.4
	c-2.5,4.3-6.5,7.4-11.4,8.7c-4.8,1.3-9.9,0.6-14.2-1.9c0,0-0.1,0-0.1,0c0.9-0.7,1.8-1.5,2.6-2.3l16.4-4.4c0.7-0.2,1.2-1,1-1.7
	c-0.2-0.7-1-1.2-1.7-1l-12.6,3.4c1.4-2.1,2.5-4.3,3.2-6.8l11.3-3c0.7-0.2,1.2-1,1-1.7c-0.2-0.7-1-1.2-1.7-1L75,64l3.1-5.4l6.6-1.8
	c0.7-0.2,1.2-1,1-1.7c-0.2-0.7-1-1.2-1.7-1l-3.9,1l3-5.1c0.4-0.7,0.2-1.5-0.5-1.9c-0.7-0.4-1.5-0.2-1.9,0.5l-3,5.1l-1-3.9
	c-0.2-0.7-1-1.2-1.7-1c-0.7,0.2-1.2,1-1,1.7l1.8,6.6l-1.8,3.1c0.1-4.5-1.1-8.9-3.4-12.9c-2.9-5-7.5-8.9-12.9-10.9c0,0,0,0,0,0
	L51.3,34c-0.7-0.3-1.5,0.1-1.8,0.8c-0.3,0.7,0.1,1.5,0.8,1.8l6.3,2.5c0,0,0.1,0,0.1,0c4.8,1.8,8.9,5.3,11.5,9.7
	c3,5.2,3.8,11.2,2.2,17c-1.4,5.3-4.7,9.9-9.3,12.9l-2.3-4.1l5.1-19c0.2-0.7-0.2-1.5-1-1.7c-0.7-0.2-1.5,0.2-1.7,1l-4.4,16.3l-5.2-9
	L55,49.3c0.2-0.7-0.2-1.5-1-1.7c-0.7-0.2-1.5,0.2-1.7,1L49.5,59l-4.1-7.1l2.1-7.9c0.2-0.7-0.2-1.5-1-1.7c-0.7-0.2-1.5,0.2-1.7,1
	l-1.4,5.2l-3.9-6.7c-0.4-0.7-1.2-0.9-1.9-0.5c-0.7,0.4-0.9,1.2-0.5,1.9l3.9,6.7l-5.2-1.4c-0.7-0.2-1.5,0.2-1.7,1
	c-0.2,0.7,0.2,1.5,1,1.7l7.9,2.1l4.1,7.1l-10.5-2.8c-0.7-0.2-1.5,0.2-1.7,1c-0.2,0.7,0.2,1.5,1,1.7L49,63.8l5.2,9l-16.3-4.4
	c-0.7-0.2-1.5,0.2-1.7,1c-0.2,0.7,0.2,1.5,1,1.7l19,5.1l2.3,4.1C48,85.5,34.9,81.7,29,71.4c-2.6-4.5-3.6-9.8-2.7-15
	c0-0.1,0-0.1,0-0.2l4-27.8l9.3,3.8c0.7,0.3,1.5-0.1,1.8-0.8c0.3-0.7-0.1-1.5-0.8-1.8l-10.9-4.4c-0.4-0.2-0.9-0.1-1.2,0.1
	c-0.4,0.2-0.6,0.6-0.7,1L23.5,56c0,0,0,0.1,0,0.1c-0.9,5.7,0.2,11.6,3.1,16.6c4.7,8.1,13.2,12.6,22,12.6c3.9,0,7.8-0.9,11.4-2.7
	l1.7,3c0.3,0.4,0.7,0.7,1.2,0.7c0.2,0,0.5-0.1,0.7-0.2c0.7-0.4,0.9-1.2,0.5-1.9l-0.6-1.1c3.1,1.6,6.5,2.4,9.9,2.4
	c1.9,0,3.7-0.2,5.6-0.7c5.5-1.5,10.2-5,13.1-10C94.4,70.6,95.3,65.6,94.6,60.8z"/>
<path class="st1" d="M63.9,80.2C63.9,80.2,64,80.2,63.9,80.2l-3.9,2.5l-1.4-2.4l-2.3-4.1l-19-5.1c-0.7-0.2-1.2-1-1-1.7
	c0.2-0.7,1-1.2,1.7-1l16.3,4.4l-5.2-9l-13.2-3.5c-0.7-0.2-1.2-1-1-1.7c0.2-0.7,1-1.2,1.7-1l10.5,2.8L43,53.3L35,51.2
	c-0.7-0.2-1.2-1-1-1.7c0.2-0.7,1-1.2,1.7-1l5.2,1.4l-3.9-6.7c-0.4-0.7-0.2-1.5,0.5-1.9c0.7-0.4,1.5-0.2,1.9,0.5l3.9,6.7l1.4-5.2
	c0.2-0.7,1-1.2,1.7-1c0.7,0.2,1.2,1,1,1.7l-2.1,7.9l4.1,7.1l2.8-10.5c0.2-0.7,1-1.2,1.7-1c0.7,0.2,1.2,1,1,1.7l-3.5,13.2l5.2,9
	L61,55.1c0.2-0.7,1-1.2,1.7-1c0.7,0.2,1.2,1,1,1.7l-5.1,19l2.3,4.1c4.6-3,7.9-7.6,9.3-12.9l3.6-5.6l1.8-3.1l-1.8-6.6
	c-0.2-0.7,0.2-1.5,1-1.7c0.7-0.2,1.5,0.2,1.7,1l1,3.9l3-5.1c0.4-0.7,1.2-0.9,1.9-0.5c0.7,0.4,0.9,1.2,0.5,1.9l-3,5.1l3.9-1
	c0.7-0.2,1.5,0.2,1.7,1c0.2,0.7-0.2,1.5-1,1.7l-6.6,1.8L75,64l8.3-2.2c0.7-0.2,1.5,0.2,1.7,1c0.2,0.7-0.2,1.5-1,1.7l-11.3,3
	c-0.7,2.4-1.8,4.7-3.2,6.8l12.6-3.4c0.7-0.2,1.5,0.2,1.7,1c0.2,0.7-0.2,1.5-1,1.7l-16.4,4.4C65.7,78.7,64.8,79.5,63.9,80.2z"/>
<path class="st1" d="M46.3,32.1c-0.3-0.3-0.6-0.4-1-0.4c-0.4,0-0.7,0.1-1,0.4c-0.3,0.3-0.4,0.6-0.4,1c0,0.4,0.1,0.7,0.4,1
	c0.3,0.3,0.6,0.4,1,0.4c0.4,0,0.7-0.1,1-0.4c0.3-0.3,0.4-0.6,0.4-1C46.7,32.7,46.6,32.3,46.3,32.1z"/>
<path class="st1" d="M85.3,44.3L85.3,44.3c-0.5-0.6-1.3-0.8-2-0.3c-0.6,0.5-0.8,1.3-0.3,2l0,0c0.3,0.4,0.7,0.6,1.1,0.6
	c0.3,0,0.6-0.1,0.8-0.3C85.6,45.8,85.8,45,85.3,44.3z"/>
</svg>
