<svg xmlns="http://www.w3.org/2000/svg" viewBox="0 0 879.95 261.08"><defs><style>.cls-1{fill:none;stroke:#606163;stroke-miterlimit:10;}</style></defs><g id="Layer_2" data-name="Layer 2"><g id="Layer_2-2" data-name="Layer 2"><path class="cls-1" d="M118.87,172.42c46.94-8.57,83-5.29,106-1.34,75.79,13.07,103.82,50,178.67,48,47.26-1.27,61.51-16.7,66.66-24,9.52-13.49,14.6-36.92,2.67-49.33-12.62-13.13-40.74-10.22-50.67,2.67-15.15,19.66,2.28,75.17,38.67,100,63.78,43.51,129.37-45.77,260-18.67,29.33,6.09,54.61,16.52,86.67,5.33,36.45-12.72,58.68-45.38,72-72"/><path class="cls-1" d="M43.83.42C35.29,6.05,19.92,18,10,38.6-4.6,69.14-3.9,111.82,22.76,143.08a93.63,93.63,0,0,0,96.11,29.34"/></g></g></svg>