<svg xmlns="http://www.w3.org/2000/svg" viewBox="0 0 744.81 369.03"><defs><style>.cls-1{fill:none;stroke:#606163;stroke-miterlimit:10;}</style></defs><g id="Layer_2" data-name="Layer 2"><g id="Layer_2-2" data-name="Layer 2"><path class="cls-1" d="M118.87,192.53c25.11-5.16,62.65-9.65,106-1.33,59.29,11.39,76.25,36.59,121.33,34.67,57.68-2.46,99.1-46.63,104-52,52-57.05,23.92-113.89,74.67-152C547.29,5,580.76-4.48,610.17,3.2c43.66,11.41,68.89,51.93,105.34,113.33,14.18,23.9,21.36,36.2,25.33,53.34,12.89,55.61-13.77,103.54-21.33,116-44.66,73.6-132.57,81.88-142.67,82.66"/><path class="cls-1" d="M43.83,20.53C35.29,26.17,19.92,38.09,10,58.72-4.6,89.26-3.9,131.94,22.76,163.2a93.61,93.61,0,0,0,96.11,29.33"/></g></g></svg>