<?xml version="1.0" encoding="utf-8"?>
<!-- Generator: Adobe Illustrator 25.2.3, SVG Export Plug-In . SVG Version: 6.00 Build 0)  -->
<svg version="1.1" id="Layer_1" xmlns="http://www.w3.org/2000/svg" xmlns:xlink="http://www.w3.org/1999/xlink" x="0px" y="0px"
	 viewBox="0 0 118 118" style="enable-background:new 0 0 118 118;" xml:space="preserve">
<style type="text/css">
	.st0{fill:#606062;}
	.st1{fill:#EE2E2A;}
	.st2{fill:#606062;stroke:#606062;}
</style>
<path class="st0" d="M34.8,67.3c-0.6-1.1-1.2-1.5-1.4-1.6c-0.3-0.1-0.6-0.1-0.8,0c-0.2,0.1-0.8,0.5-1.4,1.6
	c-0.6,1.2-0.9,2.8-0.9,4.4c0,1.6,0.3,3.2,0.9,4.4c0.6,1.1,1.2,1.5,1.4,1.6c0.1,0.1,0.3,0.1,0.4,0.1c0.1,0,0.3,0,0.4-0.1
	c0.2-0.1,0.8-0.5,1.4-1.6c0.6-1.2,0.9-2.8,0.9-4.4C35.8,70.1,35.4,68.5,34.8,67.3z M33.2,75.4c0,0.1-0.1,0.2-0.1,0.3
	c0-0.1-0.1-0.2-0.1-0.3c-0.5-1-0.8-2.2-0.8-3.6c0-1.4,0.3-2.7,0.8-3.6c0-0.1,0.1-0.2,0.1-0.3c0,0.1,0.1,0.2,0.1,0.3
	c0.5,1,0.8,2.2,0.8,3.6C33.9,73.1,33.6,74.4,33.2,75.4z"/>
<path class="st1" d="M72.9,31.4c-1.4-0.7-4-1.6-7.7-1.6c-3.7,0-6.2,0.9-7.7,1.6c-1.9,0.9-3,2.1-3,3.2c0,1.2,1.3,2.5,3.4,3.4
	c0.5,0.2,1,0,1.2-0.5c0.2-0.5,0-1-0.5-1.2c-1.7-0.8-2.3-1.5-2.4-1.8c0.1-0.2,0.6-0.9,2.1-1.7c1.2-0.6,3.4-1.3,6.6-1.3
	c3.2,0,5.4,0.7,6.6,1.3c1.5,0.7,2.1,1.4,2.1,1.7c-0.1,0.2-0.6,0.9-2.1,1.7c-1.2,0.6-3.4,1.3-6.6,1.3c-1.3,0-2.6-0.1-3.7-0.4
	c-0.5-0.1-1,0.2-1.1,0.7c-0.1,0.5,0.2,1,0.7,1.1c1.3,0.3,2.7,0.4,4.1,0.4c3.7,0,6.2-0.9,7.7-1.6c1.9-0.9,3-2.1,3-3.2
	C75.8,33.5,74.7,32.3,72.9,31.4z"/>
<path class="st2" d="M65.2,33.6c1.7,0,3.3,0.2,4.6,0.7l-9.3,0C61.9,33.9,63.4,33.6,65.2,33.6z M69.8,34.3c0.1,0,0.2,0.1,0.2,0.2
	c0,0.1-0.1,0.2-0.2,0.2V34.3z M60.4,34.5c0-0.1,0.1-0.2,0.2-0.2l9.3,0.5c-1.3,0.4-2.9,0.7-4.6,0.7c-1.7,0-3.3-0.2-4.6-0.7h0
	C60.4,34.7,60.4,34.6,60.4,34.5z"/>
<path class="st0" d="M65.2,26.5c-7.8,0-13.9,3.5-13.9,8c0,0,0,0,0,0v10.4c0,0.5,0.4,0.9,0.9,0.9c0.5,0,0.9-0.4,0.9-0.9v-6.4
	c2.4,2.4,6.8,4,12.1,4s9.7-1.6,12.1-4v8.5c0,0.5,0.4,0.9,0.9,0.9c0.5,0,0.9-0.4,0.9-0.9V34.5c0,0,0,0,0,0C79.1,30,73,26.5,65.2,26.5
	z M77.2,34.5L77.2,34.5c0,3.4-5.5,6.2-12.1,6.2c-6.5,0-12.1-2.8-12.1-6.2v0c0,0,0,0,0,0c0-3.4,5.5-6.2,12.1-6.2
	C71.7,28.3,77.2,31.2,77.2,34.5C77.2,34.5,77.2,34.5,77.2,34.5z"/>
<path class="st1" d="M78.2,73.1c-0.5,0-0.9,0.4-0.9,0.9v5.8c0,3.4-5.5,6.2-12.1,6.2c-6.5,0-12.1-2.8-12.1-6.2V48
	c0-0.5-0.4-0.9-0.9-0.9c-0.5,0-0.9,0.4-0.9,0.9v31.9c0,4.5,6.1,8,13.9,8c7.8,0,13.9-3.5,13.9-8V74C79.1,73.5,78.7,73.1,78.2,73.1z"
	/>
<path class="st0" d="M87.9,49.3c-0.5-1-1.1-1.9-1.9-2.4c-0.9-0.7-1.9-0.8-2.6-0.5c0,0-8,4.8-8,4.8c-0.4,0.3-0.6,0.8-0.3,1.2
	c0.2,0.3,0.5,0.4,0.8,0.4c0.2,0,0.3,0,0.5-0.1l5.8-3.4c0.1,0.8,0.3,1.6,0.6,2.4c0.5,1,1.1,1.9,1.9,2.4c0.3,0.2,0.6,0.4,0.9,0.5
	l-11,18.8c-0.3,0.4-0.1,1,0.3,1.2c0.1,0.1,0.3,0.1,0.5,0.1c0.3,0,0.6-0.2,0.8-0.5c0,0,11.9-20.4,11.9-20.4c0.3-0.4,0.5-1,0.6-1.7
	C88.6,51.4,88.3,50.3,87.9,49.3z M86.7,52.2c0,0.4-0.2,0.7-0.3,0.8c-0.1,0.1-0.4,0-0.8-0.3c-0.5-0.4-1-1-1.3-1.7
	c-0.3-0.7-0.5-1.5-0.5-2.1c0-0.4,0.1-0.6,0.2-0.7l0.1,0c0,0,0,0,0.1,0c0.1,0,0.4,0.1,0.7,0.3c0.5,0.4,1,1,1.3,1.7
	C86.5,50.8,86.7,51.6,86.7,52.2z"/>
<path class="st1" d="M49.2,79.1H36.5c1.4-1.7,2.3-4.3,2.3-7.4s-0.9-5.7-2.3-7.4h12.7v0c0.5,0,0.9-0.4,0.9-0.9c0-0.5-0.4-0.9-0.9-0.9
	h-5.6l-0.3-1.6c1.3-2,1.6-4.4,0.7-6.7c-0.9-2.3-3-4-5.5-4.5c-0.3-0.1-0.7,0.1-0.9,0.4c-1.5,2-1.9,4.6-0.9,7c0.9,2.2,2.7,3.7,4.9,4.3
	l0.2,1.1H33c-3.3,0-5.8,4-5.8,9.2c0,5.2,2.6,9.2,5.8,9.2h16.2c0.5,0,0.9-0.4,0.9-0.9C50.1,79.5,49.7,79.1,49.2,79.1z M38.3,56.4
	c-0.6-1.6-0.5-3.3,0.4-4.8c1.6,0.5,2.9,1.7,3.6,3.2c0.6,1.6,0.5,3.3-0.4,4.8C40.3,59.2,39,58,38.3,56.4z M33,79.1
	c-2.2,0-4-3.4-4-7.4c0-4,1.8-7.4,4-7.4c2.2,0,4,3.4,4,7.4C37,75.7,35.2,79.1,33,79.1z"/>
<path class="st0" d="M60,53.9c-0.5,0-0.9,0.4-0.9,0.9v16.1c0,0.5,0.4,0.9,0.9,0.9c0.5,0,0.9-0.4,0.9-0.9V54.8
	C61,54.3,60.6,53.9,60,53.9z"/>
<path class="st0" d="M60,44.9c-0.5,0-0.9,0.4-0.9,0.9v6c0,0.5,0.4,0.9,0.9,0.9c0.5,0,0.9-0.4,0.9-0.9v-6C61,45.3,60.6,44.9,60,44.9z
	"/>
<path class="st0" d="M55.9,74.7c-0.5,0-0.9,0.4-0.9,0.9v2.1c0,0.5,0.4,0.9,0.9,0.9c0.5,0,0.9-0.4,0.9-0.9v-2.1
	C56.8,75.1,56.4,74.7,55.9,74.7z"/>
<path class="st0" d="M55.9,43.6c-0.5,0-0.9,0.4-0.9,0.9v28.1c0,0.5,0.4,0.9,0.9,0.9c0.5,0,0.9-0.4,0.9-0.9V44.5
	C56.8,44,56.4,43.6,55.9,43.6z"/>
</svg>
