<svg xmlns="http://www.w3.org/2000/svg" viewBox="0 0 427.91 128.58"><defs><style>.cls-1{fill:#6d6e71;}.cls-2{fill:#f58222;}.cls-3{fill:#f04c3e;}.cls-4{fill:#f1582f;}</style></defs><g id="Layer_2" data-name="Layer 2"><g id="Слой_1" data-name="Слой 1"><path class="cls-1" d="M174,59.19c0-6.69-2.12-9.86-10.13-9.86H152.51c-7.49,0-10.33,4-10.33,9.92V65.8c0,8.24,5,9.59,11.06,9.59h10.13c6.63,0,10.6-1.49,10.6-9.45Zm-37.49-14h5.3v5.47h.13c1.66-4.18,6.29-6,11.33-6H164c8.08,0,15.62,2.64,15.62,14.52V65.2c0,11.13-4.82,14.92-16.55,14.92H152.25c-6,0-8.74-1.56-9.94-5.13h-.13V94.12h-5.7Z"/><path class="cls-1" d="M221.85,56.35c0-3.51-2.58-7-11.86-7h-8.34c-9,0-11.13,1.49-11.66,9.31h31.86Zm-37.56,2.16c0-12.49,8.48-13.9,16.56-13.9H210c10.2,0,17.56,2.63,17.56,14.92v3.85H190v2.15c0,7.84,3.71,9.86,13.64,9.86h7.82c7.15,0,10.07-1,10.4-6.21h5.7v.67c0,7.9-6.43,10.26-17,10.26H200.19c-7.42,0-15.9-1.41-15.9-14.1Z"/><rect class="cls-1" x="232.33" y="30.7" width="5.7" height="48.87"/><rect class="cls-1" x="243.88" y="30.7" width="5.69" height="48.87"/><path class="cls-1" d="M260.57,49.87h-7.41V45.14h7.41V37h5.7v8.16h22.59v4.73H266.27V67c0,6.41,2.19,8.37,8.42,8.37h1.79c7.55,0,8.73-1.62,8.73-8.85V63.37h4.64v4.39c0,6.89-.66,12.35-13,12.35h-3.11c-10.66,0-13.19-5.27-13.19-10.86Z"/><path class="cls-1" d="M331.17,56.35c0-3.51-2.58-7-11.86-7H311c-9,0-11.12,1.49-11.65,9.31h31.86Zm-37.56,2.16c0-12.49,8.49-13.9,16.56-13.9h9.14c10.2,0,17.55,2.63,17.55,14.92v3.85H299.31v2.15c0,7.84,3.71,9.86,13.64,9.86h7.82c7.15,0,10.07-1,10.4-6.21h5.69v.67c0,7.9-6.42,10.26-17,10.26H309.51c-7.41,0-15.9-1.41-15.9-14.1Z"/><path class="cls-1" d="M340.85,58.51c0-12.49,8.6-13.9,16.95-13.9h9.54c10.6,0,14.77,4.38,14.77,11.67v2.36h-5.29V56.42c0-5.74-3.72-7.09-9.41-7.09H356.94c-5.36,0-10.4.82-10.4,9.38v7.23c0,7.69,4.64,9.45,11.53,9.45h9.61c5.29,0,9.73-1.62,9.73-7.22V67h5.3v1c0,8.71-4.24,12.08-14.83,12.08H355c-5.11,0-14.17-1.41-14.17-13.9Z"/><path class="cls-1" d="M386.24,30.7H392V51.09h.12c2.13-5.34,6.56-6.49,13.65-6.49h8.14c10.67,0,14.05,5.47,14.05,11.68V79.57h-5.7V57.7c0-5.06-1.39-8.37-12.45-8.37H408.3C395,49.33,392,51.89,392,60V79.57h-5.71Z"/><path class="cls-2" d="M60.1,52.9A11.39,11.39,0,1,1,48.71,64.29,11.39,11.39,0,0,1,60.1,52.9"/><path class="cls-3" d="M11.38,79.35A11.39,11.39,0,1,1,0,90.75a11.39,11.39,0,0,1,11.38-11.4"/><path class="cls-3" d="M11.38,26.45A11.39,11.39,0,1,1,0,37.84,11.39,11.39,0,0,1,11.38,26.45"/><path class="cls-3" d="M11.38,52.9A11.39,11.39,0,1,1,0,64.29,11.39,11.39,0,0,1,11.38,52.9"/><path class="cls-3" d="M35.71,13.18A11.39,11.39,0,1,1,24.32,24.57,11.39,11.39,0,0,1,35.71,13.18"/><path class="cls-3" d="M35.71,92.54a11.39,11.39,0,1,1-11.39,11.38A11.38,11.38,0,0,1,35.71,92.54"/><path class="cls-3" d="M108.77,79.35a11.39,11.39,0,1,0,11.39,11.4,11.39,11.39,0,0,0-11.39-11.4"/><path class="cls-3" d="M108.77,26.45a11.39,11.39,0,1,0,11.39,11.39,11.39,11.39,0,0,0-11.39-11.39"/><path class="cls-3" d="M108.77,52.9a11.39,11.39,0,1,0,11.39,11.39A11.39,11.39,0,0,0,108.77,52.9"/><path class="cls-3" d="M84.45,13.18A11.39,11.39,0,1,0,95.83,24.57,11.39,11.39,0,0,0,84.45,13.18"/><path class="cls-3" d="M84.45,92.54a11.39,11.39,0,1,0,11.38,11.38A11.38,11.38,0,0,0,84.45,92.54"/><path class="cls-3" d="M60.1,105.81A11.39,11.39,0,1,1,48.71,117.2,11.39,11.39,0,0,1,60.1,105.81"/><path class="cls-3" d="M60.1,0A11.39,11.39,0,1,1,48.71,11.38,11.39,11.39,0,0,1,60.1,0"/><path class="cls-4" d="M35.71,66.09A11.39,11.39,0,1,1,24.32,77.48,11.39,11.39,0,0,1,35.71,66.09"/><path class="cls-4" d="M35.71,39.64A11.39,11.39,0,1,1,24.32,51,11.38,11.38,0,0,1,35.71,39.64"/><path class="cls-4" d="M84.45,66.09A11.39,11.39,0,1,0,95.83,77.48,11.39,11.39,0,0,0,84.45,66.09"/><path class="cls-4" d="M84.45,39.64A11.39,11.39,0,1,0,95.83,51,11.38,11.38,0,0,0,84.45,39.64"/><path class="cls-4" d="M60.1,79.35a11.39,11.39,0,1,1-11.39,11.4A11.39,11.39,0,0,1,60.1,79.35"/><path class="cls-4" d="M60.1,26.45A11.39,11.39,0,1,1,48.71,37.84,11.39,11.39,0,0,1,60.1,26.45"/></g></g></svg>