<?xml version="1.0" encoding="utf-8"?>
<!-- Generator: Adobe Illustrator 25.2.3, SVG Export Plug-In . SVG Version: 6.00 Build 0)  -->
<svg version="1.1" id="Layer_1" xmlns="http://www.w3.org/2000/svg" xmlns:xlink="http://www.w3.org/1999/xlink" x="0px" y="0px"
	 viewBox="0 0 118 118" style="enable-background:new 0 0 118 118;" xml:space="preserve">
<style type="text/css">
	.st0{fill:#606062;}
	.st1{fill:#EE2E2A;}
</style>
<path class="st0" d="M67.3,43.4H49.5c-2.8,0-5.1,2.4-5.1,5.3v8.5c0,0.5,0.4,0.9,0.9,0.9c0.5,0,0.9-0.4,0.9-0.9v-8.5
	c0-1.9,1.5-3.4,3.4-3.4h17.8c1.9,0,3.4,1.5,3.4,3.4v34.6c0,1.9-1.5,3.4-3.4,3.4h-0.7V85c0-0.5-0.4-0.9-0.9-0.9
	c-0.5,0-0.9,0.4-0.9,0.9v1.6H51.9v-6.8c0-1.5,1.2-2.7,2.6-2.7h7.7c1.4,0,2.5,1,2.6,2.4c0.1,0.5,0.5,0.9,1,0.8c0.5-0.1,0.8-0.5,0.8-1
	c-0.2-2.3-2.1-4-4.4-4h-7.7c-2.4,0-4.4,2-4.4,4.5v6.8h-0.7c-1.9,0-3.4-1.5-3.4-3.4V62.7c0-0.5-0.4-0.9-0.9-0.9
	c-0.5,0-0.9,0.4-0.9,0.9v20.5c0,2.9,2.3,5.3,5.1,5.3H51h14.7h1.5c2.8,0,5.1-2.4,5.1-5.3V48.6C72.4,45.7,70.1,43.4,67.3,43.4z"/>
<path class="st1" d="M58.4,48.4c-5.2,0-9.4,4.3-9.4,9.7c0,5.3,4.2,9.7,9.4,9.7c5.2,0,9.4-4.3,9.4-9.7S63.6,48.4,58.4,48.4z
	 M58.4,65.9c-4.2,0-7.7-3.5-7.7-7.9c0-4.3,3.4-7.9,7.7-7.9c4.2,0,7.7,3.5,7.7,7.9C66.1,62.4,62.6,65.9,58.4,65.9z"/>
<path class="st1" d="M58.4,52.8c-2.8,0-5.2,2.4-5.2,5.3c0,2.9,2.3,5.3,5.2,5.3c2.8,0,5.2-2.4,5.2-5.3C63.5,55.2,61.2,52.8,58.4,52.8
	z M58.4,61.6c-1.9,0-3.4-1.6-3.4-3.5c0-1.9,1.5-3.5,3.4-3.5c1.9,0,3.4,1.6,3.4,3.5C61.8,60,60.2,61.6,58.4,61.6z"/>
<path class="st0" d="M60.8,80.1H56c-0.5,0-0.9,0.4-0.9,0.9c0,0.5,0.4,0.9,0.9,0.9h4.8c0.5,0,0.9-0.4,0.9-0.9
	C61.6,80.6,61.3,80.1,60.8,80.1z"/>
<path class="st1" d="M60.8,83.1H56c-0.5,0-0.9,0.4-0.9,0.9c0,0.5,0.4,0.9,0.9,0.9h4.8c0.5,0,0.9-0.4,0.9-0.9
	C61.6,83.5,61.3,83.1,60.8,83.1z"/>
<path class="st1" d="M68.4,37.4c-2.2-3.6-5.9-5.7-10-5.7c-4.1,0-7.9,2.1-10.1,5.7c-0.3,0.4-0.1,1,0.3,1.2c0.1,0.1,0.3,0.1,0.5,0.1
	c0.3,0,0.6-0.2,0.7-0.4c1.9-3,5.1-4.9,8.6-4.9c3.5,0,6.7,1.8,8.6,4.8c0.3,0.4,0.8,0.5,1.2,0.3C68.6,38.4,68.7,37.9,68.4,37.4z"/>
<path class="st1" d="M63.8,40.3c-1.2-1.9-3.2-3.1-5.4-3.1c-2.2,0-4.2,1.1-5.4,3.1c-0.3,0.4-0.1,1,0.3,1.2c0.1,0.1,0.3,0.1,0.5,0.1
	c0.3,0,0.6-0.2,0.7-0.4c0.8-1.4,2.3-2.2,3.9-2.2c1.6,0,3.1,0.8,3.9,2.2c0.3,0.4,0.8,0.5,1.2,0.3C63.9,41.3,64,40.7,63.8,40.3z"/>
<path class="st1" d="M73,34.1c-3.2-4.5-8.6-7.2-14.6-7.2c-6,0-11.4,2.7-14.6,7.2c-0.3,0.4-0.2,1,0.2,1.3c0.2,0.1,0.3,0.2,0.5,0.2
	c0.3,0,0.5-0.1,0.7-0.4c2.9-4.1,7.8-6.5,13.2-6.5c5.4,0,10.3,2.4,13.2,6.4c0.3,0.4,0.8,0.5,1.2,0.2C73.2,35.1,73.3,34.5,73,34.1z"/>
</svg>
