<?xml version="1.0" encoding="utf-8"?>
<!-- Generator: Adobe Illustrator 25.2.3, SVG Export Plug-In . SVG Version: 6.00 Build 0)  -->
<svg version="1.1" id="Layer_1" xmlns="http://www.w3.org/2000/svg" xmlns:xlink="http://www.w3.org/1999/xlink" x="0px" y="0px"
	 viewBox="0 0 118 118" style="enable-background:new 0 0 118 118;" xml:space="preserve">
<style type="text/css">
	.st0{fill:#EE2E2A;}
	.st1{fill:#606062;}
</style>
<path class="st0" d="M59,49.4c-2.1,0-3.8,1.7-3.8,3.7v25.2c0,2.1,1.7,3.7,3.8,3.7c2.1,0,3.8-1.7,3.8-3.7V53.1
	C62.8,51.1,61.1,49.4,59,49.4z M60.7,78.4c0,0.9-0.8,1.7-1.7,1.7c-1,0-1.7-0.8-1.7-1.7V53.1c0-0.9,0.8-1.7,1.7-1.7
	c1,0,1.7,0.8,1.7,1.7V78.4z"/>
<path class="st0" d="M53.1,78.3L52.4,53c-0.1-2-1.7-3.6-3.8-3.6c0,0-0.1,0-0.1,0c-2.1,0.1-3.7,1.8-3.7,3.8l0.7,25.2
	c0.1,2,1.7,3.6,3.8,3.6c0,0,0.1,0,0.1,0C51.5,82,53.2,80.3,53.1,78.3z M49.4,80.1L49.4,80.1c-1,0-1.7-0.7-1.8-1.7l-0.7-25.2
	c0-0.9,0.7-1.7,1.7-1.7l0,0c0.9,0,1.7,0.7,1.7,1.7l0.7,25.2C51.1,79.3,50.3,80,49.4,80.1z"/>
<path class="st0" d="M69.4,49.4c0,0-0.1,0-0.1,0c-2.1,0-3.7,1.6-3.8,3.6l-0.7,25.2c-0.1,2.1,1.6,3.8,3.7,3.8c0,0,0.1,0,0.1,0
	c2.1,0,3.7-1.6,3.8-3.6l0.7-25.2C73.2,51.2,71.5,49.5,69.4,49.4z M70.4,78.4c0,0.9-0.8,1.7-1.7,1.7l0,0c-1,0-1.7-0.8-1.7-1.7
	l0.7-25.2c0-0.9,0.8-1.7,1.7-1.7l0,0c1,0,1.7,0.8,1.7,1.7L70.4,78.4z"/>
<path class="st0" d="M76.5,78c-0.6,0-1.1,0.4-1.1,1L75,87.7H43l-1.9-34.6c0-0.6-0.5-1-1.1-1c-0.6,0-1,0.5-1,1.1l2,35.5
	c0,0.5,0.5,1,1,1h33.9c0.5,0,1-0.4,1-1l0.5-9.7C77.5,78.5,77.1,78,76.5,78z"/>
<path class="st1" d="M78,33.7H67.6v-2.1c0-1.8-1.5-3.3-3.4-3.3H53.7c-1.8,0-3.4,1.5-3.4,3.3v2.1H40c-3.4,0-6.1,2.7-6.1,6v3.1
	c0,0.6,0.5,1,1,1h3.7l0.3,5.3c0,0.5,0.5,1,1,1c0,0,0,0,0.1,0c0.6,0,1-0.5,1-1.1l-0.3-5.2h26.1c0.6,0,1-0.5,1-1c0-0.6-0.5-1-1-1H35.9
	v-2.1c0-2.2,1.8-4,4-4h11.4h15.2H78c2.2,0,4,1.8,4,4v2.1H70.9c-0.6,0-1,0.5-1,1c0,0.6,0.5,1,1,1h6.5l-1.7,31c0,0.6,0.4,1,1,1.1
	c0,0,0,0,0.1,0c0.5,0,1-0.4,1-1l1.7-31.1h3.7c0.6,0,1-0.5,1-1v-3.1C84.1,36.4,81.4,33.7,78,33.7z M65.6,33.7H52.4v-2.1
	c0-0.7,0.6-1.3,1.3-1.3h10.6c0.7,0,1.3,0.6,1.3,1.3V33.7z"/>
</svg>
