<?xml version="1.0" encoding="utf-8"?>
<!-- Generator: Adobe Illustrator 25.2.3, SVG Export Plug-In . SVG Version: 6.00 Build 0)  -->
<svg version="1.1" id="Layer_1" xmlns="http://www.w3.org/2000/svg" xmlns:xlink="http://www.w3.org/1999/xlink" x="0px" y="0px"
	 viewBox="0 0 43 50" style="enable-background:new 0 0 43 50;" xml:space="preserve">
<style type="text/css">
	.st0{fill:#EE2E2A;}
	.st1{fill:#606062;}
</style>
<path class="st0" d="M41.7,8.6C34.9,6.7,28,3.8,21.8,0.1C21.4,0,21,0,20.7,0.1C14.3,3.9,7.8,6.7,0.8,8.6C0.3,8.8,0,9.2,0,9.6v10.7
	C0,31.5,5.1,38.8,9.4,43c4.6,4.5,9.9,7,11.9,7c1.9,0,7.3-2.5,11.9-7c4.3-4.2,9.4-11.5,9.4-22.6V9.6C42.5,9.2,42.2,8.8,41.7,8.6z
	 M40.4,20.4c0,10.3-4.7,17.2-8.7,21.1c-4.5,4.4-9.3,6.4-10.4,6.4c-1.1,0-5.9-2-10.4-6.4c-4-3.9-8.7-10.7-8.7-21.1v-9.9
	c6.7-1.9,13-4.6,19.1-8.2c6,3.5,12.6,6.3,19.1,8.2V20.4z"/>
<path class="st0" d="M12,10.3c-0.2-0.5-0.8-0.8-1.4-0.6c-1.9,0.7-3.8,1.4-5.7,2c-0.4,0.1-0.7,0.5-0.7,1v4.1c0,0.6,0.5,1.1,1,1.1
	s1-0.5,1-1.1v-3.3c1.7-0.6,3.4-1.2,5.1-1.8C11.9,11.5,12.2,10.9,12,10.3z"/>
<path class="st0" d="M13.9,10.5c0.1,0,0.3,0,0.4-0.1l0,0c0.5-0.2,0.8-0.9,0.5-1.4c-0.2-0.5-0.9-0.8-1.4-0.5l0,0
	C13,8.7,12.7,9.4,13,9.9C13.2,10.3,13.5,10.5,13.9,10.5z"/>
<path class="st0" d="M33.7,33.9c-0.5-0.3-1.1-0.2-1.5,0.3c-0.9,1.3-1.9,2.6-3,3.8c-0.9,1-1.9,1.9-3,2.7c-0.5,0.4-0.5,1-0.2,1.5
	c0.2,0.3,0.5,0.4,0.8,0.4c0.2,0,0.4-0.1,0.6-0.2c1.1-0.9,2.2-1.8,3.2-2.9c1.2-1.3,2.3-2.6,3.3-4.1C34.3,34.9,34.2,34.2,33.7,33.9z"
	/>
<path class="st0" d="M23.8,42.3L23.8,42.3c-0.6,0.3-0.7,1-0.4,1.5c0.2,0.3,0.5,0.5,0.9,0.5c0.2,0,0.4,0,0.5-0.1l0.1,0
	c0.5-0.3,0.7-0.9,0.4-1.4C25,42.2,24.3,42,23.8,42.3z"/>
<path class="st1" d="M14.1,22.9c-0.6-0.6-1.5-1-2.4-1c-0.9,0-1.8,0.4-2.4,1c-1.3,1.3-1.3,3.5,0,4.8l6.2,6.2c0.6,0.6,1.5,1,2.4,1
	c0.9,0,1.8-0.4,2.4-1l12.9-13c1.3-1.3,1.3-3.5,0-4.8c-0.6-0.6-1.5-1-2.4-1c-0.9,0-1.8,0.4-2.4,1L17.9,26.6L14.1,22.9z M29.9,17.6
	c0.2-0.2,0.6-0.4,0.9-0.4c0.4,0,0.7,0.1,0.9,0.4c0.5,0.5,0.5,1.3,0,1.9l-12.9,13c-0.2,0.2-0.6,0.4-0.9,0.4c-0.4,0-0.7-0.1-0.9-0.4
	l-6.2-6.2c-0.5-0.5-0.5-1.3,0-1.9c0.2-0.2,0.6-0.4,0.9-0.4c0.4,0,0.7,0.1,0.9,0.4l4.5,4.5c0.2,0.2,0.5,0.3,0.7,0.3
	c0.3,0,0.5-0.1,0.7-0.3L29.9,17.6z"/>
</svg>
