<?xml version="1.0" encoding="utf-8"?>
<!-- Generator: Adobe Illustrator 25.2.3, SVG Export Plug-In . SVG Version: 6.00 Build 0)  -->
<svg version="1.1" id="Layer_1" xmlns="http://www.w3.org/2000/svg" xmlns:xlink="http://www.w3.org/1999/xlink" x="0px" y="0px"
	 viewBox="0 0 118 118" style="enable-background:new 0 0 118 118;" xml:space="preserve">
<style type="text/css">
	.st0{fill:#606062;}
	.st1{fill:#EE2E2A;}
</style>
<path class="st0" d="M80.5,30.2c-0.1,0-0.1,0-0.2,0c-6.7,1.4-13.8,0.1-19.6-3.4l-1.4-0.8c-0.3-0.2-0.8-0.2-1.1,0l-1.4,0.8
	C51,30.3,44,31.5,37.2,30.2c-0.6-0.1-1.1,0.2-1.2,0.8c0,0.1,0,0.1,0,0.2v31.4c0,4,1.1,8,3.1,11.5c2.4,4,6,7.2,10.3,9.1l8.9,3.9
	c0.3,0.1,0.6,0.1,0.8,0l8.9-3.9c0.5-0.2,1-0.5,1.5-0.7c0.5-0.3,0.7-0.9,0.4-1.4c-0.3-0.5-0.9-0.7-1.4-0.4c-0.4,0.2-0.9,0.4-1.3,0.6
	L58.8,85l-8.5-3.7c-3.9-1.7-7.2-4.6-9.3-8.2c-1.9-3.2-2.9-6.8-2.9-10.5V32.4c6.9,1.1,13.9-0.3,19.9-3.9l0.8-0.5l0.8,0.5
	c5.9,3.6,13,5,19.9,3.9v30.2c0,0.6,0.5,1,1,1c0.6,0,1-0.5,1-1V31.2C81.5,30.6,81,30.2,80.5,30.2z"/>
<path class="st1" d="M58.7,33.4c-0.3-0.5-0.9-0.7-1.4-0.4c0,0-0.1,0-0.1,0c-4.8,2.8-10.4,3.7-15.8,2.7c-0.6-0.1-1.1,0.2-1.2,0.8
	c0,0.1,0,0.1,0,0.2v24.4c0,3.2,0.9,6.3,2.6,9.1c2,3.2,4.9,5.7,8.4,7.1c0.5,0.2,1.1,0,1.4-0.5c0.2-0.5,0-1.1-0.6-1.3
	c-3.1-1.3-5.7-3.5-7.5-6.3c-1.5-2.4-2.3-5.2-2.3-8V37.9c5.6,0.8,11.2-0.3,16-3.1C58.7,34.6,58.9,33.9,58.7,33.4z"/>
<path class="st1" d="M84.2,77.2c-0.4-0.3-1-0.3-1.4,0l-4.9,4.9c-0.3-0.1-0.7-0.1-1.1,0l-9.1-9c-0.4-0.4-1.1-0.4-1.5,0
	c-0.4,0.4-0.4,1,0,1.4l9.1,9c-0.3,1.1,0.3,2.2,1.4,2.5c0.2,0.1,0.4,0.1,0.6,0.1c1.1,0,2.1-0.9,2.1-2c0-0.2,0-0.4-0.1-0.5l4.9-4.9
	C84.7,78.2,84.6,77.6,84.2,77.2z"/>
<path class="st1" d="M75,48.6l-4.1-4.1c-0.4-0.4-1.1-0.4-1.5,0L56.7,57l-3.4-3.4c-0.4-0.4-1.1-0.4-1.5,0l-4.1,4.1
	c-0.4,0.4-0.4,1,0,1.4l8.3,8.2c0.2,0.2,0.5,0.3,0.7,0.3c0.3,0,0.5-0.1,0.7-0.3L75,50C75.4,49.6,75.4,49,75,48.6z M56.7,65.2
	l-6.8-6.7l2.7-2.6l3.4,3.4c0.4,0.4,1.1,0.4,1.5,0l12.7-12.6l2.7,2.6L56.7,65.2z"/>
</svg>
